# xmcd
#
# Track frame offsets:
#	150
#	11674
#	26860
#	40500
#	55438
#	66594
#	86504
#	103110
#	119110
#	138896
#	168664
#	182057
#	200965
#
# Disc length: 2921 seconds
#
# Revision: 0
# Processed by: cddbd v1.5.2PL0 Copyright (c) Steve Scherf et al.
# Submitted via: audiograbber 1.83.01
#
DISCID=c50b670d
DTITLE=Pete Fidler - Slide Night
DYEAR=2011
DGENRE=Bluegrass
TTITLE0=Ma's Wacky Salt
TTITLE1=Take That Train
TTITLE2=Red Haired Boy
TTITLE3=Leadfoot
TTITLE4=Jamboree
TTITLE5=Forgiveness
TTITLE6=Incident On 49th
TTITLE7=Southern Filibuster
TTITLE8=Heidy Hills
TTITLE9=Sleepyhead
TTITLE10=Greenville Trestle
TTITLE11=Weaselcat
TTITLE12=Bell Street Blues
EXTD=
EXTT0=
EXTT1=
EXTT2=
EXTT3=
EXTT4=
EXTT5=
EXTT6=
EXTT7=
EXTT8=
EXTT9=
EXTT10=
EXTT11=
EXTT12=
PLAYORDER=
